<svg id="Layer_1" enable-background="new 0 0 510 510" height="512" viewBox="0 0 510 510" width="512" xmlns="http://www.w3.org/2000/svg"><g><path d="m450 375-30 10-30-10v-105l10-15-10-15v-90l10-15-10-15v-60h60l10 157.5z" fill="#00ecce"/><path d="m255 0v375l33.75 10 33.75-10c0-10.573 0-364.427 0-375-18.362 0-56.794 0-67.5 0z" fill="#eceae7"/><path d="m322.5 90h-15v-30h15l10 15z" fill="#ce3b00"/><path d="m322.5 330h-15v-30h15l10 15z" fill="#ce3b00"/><path d="m322.5 270h-15v-150h15l10 75z" fill="#ce3b00"/><path d="m195 375-30 10-30-10v-44.333l10-15.667-10-15v-150l10-15-10-15v-60h60l10 157.5z" fill="#544f57"/><path d="m195 150h-60v-30h60l10 15z" fill="#403b40"/><path d="m195 330h-60v-30h60l10 15z" fill="#403b40"/><path d="m195 270h-15v-90h15l10 45z" fill="#403b40"/><path d="m0 0v375l33.75 10 33.75-10 10-187.5-10-187.5c-18.362 0-56.793 0-67.5 0z" fill="#ffef4a"/><g fill="#ffd845"><path d="m67.5 90h-15v-30h15l10 15z"/><path d="m67.5 330h-15v-30h15l10 15z"/><path d="m67.5 270h-15v-150h15l10 75z"/><path d="m135 0c-18.362 0-56.794 0-67.5 0v375l33.75 10 33.75-10c0-10.573 0-364.427 0-375z"/></g><path d="m255 375-30 10-30-10c0-17.496 0-315 0-315h60v60l-10 15 10 15.635v149.365l-10 15 10 15z" fill="#403b40"/><path d="m510 375-30 10-30-10c0-17.496 0-315 0-315h60v60l-10 15 10 15v90l-10 15 10 15z" fill="#00c6cb"/><path d="m67.5 60h15v30h-15z" fill="#ff5c5c"/><path d="m67.5 300h15v30h-15z" fill="#ff5c5c"/><path d="m67.5 120h15v150h-15z" fill="#ff5c5c"/><path d="m390 0c-18.362 0-56.794 0-67.5 0v375l33.75 10 33.75-10c0-10.573 0-364.427 0-375z" fill="#dddadf"/><path d="m322.5 60h15v30h-15z" fill="#af3345"/><path d="m322.5 300h15v30h-15z" fill="#af3345"/><path d="m322.5 120h15v150h-15z" fill="#af3345"/><path d="m195 120h60v30h-60z" fill="#2e2e2e"/><path d="m450 150h-60v-30h60l10 15z" fill="#00c6cb"/><path d="m450 270h-60v-30h60l10 15z" fill="#00c6cb"/><path d="m195 300h60v30h-60z" fill="#2e2e2e"/><path d="m195 180h15v90h-15z" fill="#2e2e2e"/><path d="m450 330h-15v-30h15l10 15z" fill="#00c6cb"/><path d="m450 210h-15v-30h15l10 15z" fill="#00c6cb"/><path d="m38.787 450 60 60h66.213c0-7.259 0-52.693 0-60l-63.107-10z" fill="#af3345"/><path d="m345 450v60h66.213l60-60-63.107-10z" fill="#93293b"/><path d="m255 450c-7.193 0-247.807 0-255 0 0-20.194 0-63.236 0-75h255l10 37.5z" fill="#ce3b00"/><path d="m450 120h60v30h-60z" fill="#4b7eec"/><path d="m450 240h60v30h-60z" fill="#4b7eec"/><path d="m450 300h15v30h-15z" fill="#4b7eec"/><path d="m450 180h15v30h-15z" fill="#4b7eec"/><path d="m510 450h-255v-75h255z" fill="#af3345"/></g></svg>